<svg width="800" height="600" xmlns="http://www.w3.org/2000/svg">

 <g>
  <title>Layer 1</title>
  <g stroke="null">
   <path stroke="null" fill="#363636" d="m55.34604,149.9529c15.72428,0 28.47116,8.79157 28.47116,19.63667l0,266.04571c0,6.86184 5.90241,16.20889 41.57291,30.97252c34.77809,14.39603 87.8743,29.91685 162.61406,51.69313c38.69254,11.27302 62.34547,18.00604 80.52464,21.45581l0,-256.14883c0,-10.84509 12.74688,-19.63667 28.47116,-19.63667c15.72428,0 28.47116,8.79157 28.47116,19.63667l0,256.14883c18.18054,-3.44977 41.83211,-10.18593 80.52555,-21.45581c74.74021,-21.77628 127.83779,-37.2971 162.61361,-51.69313c35.66867,-14.76049 41.57245,-24.11068 41.57245,-30.97252l0,-266.04571c0,-10.84509 12.74597,-19.63667 28.47116,-19.63667c15.72519,0 28.47116,8.79157 28.47116,19.63667l0,266.04571c0,29.33561 -31.02673,48.84346 -69.21453,64.65019c-38.66156,15.99838 -95.53555,32.56859 -167.40132,53.50599l-2.35513,0.68807c-1.91782,0.55611 -3.81286,1.10908 -5.68512,1.65576c-53.85377,15.69991 -88.57447,25.823 -125.46899,25.823c-36.89498,0 -71.61659,-10.12309 -125.47081,-25.823c-1.8709,-0.54668 -3.76457,-1.09651 -5.68239,-1.65576l-2.35969,-0.68807c-71.86485,-20.9374 -128.73657,-37.5076 -167.39585,-53.50599c-38.18871,-15.80673 -69.21635,-35.31458 -69.21635,-64.65019l0,-266.04571c0,-10.84509 12.74688,-19.63667 28.47116,-19.63667z" clip-rule="evenodd" fill-rule="evenodd"/>
   <path stroke="null" fill="#363636" d="m396.99998,58.31502c-28.75906,0 -56.16791,8.63793 -127.07203,32.30184l-110.89358,37.00962c0,0 0,-0.00031 0,0c-31.29186,10.44325 -51.83163,17.35379 -64.93019,23.45623c-5.63319,2.62409 -8.35503,4.40238 -9.6146,5.41564c1.25956,1.01325 3.98141,2.79155 9.6146,5.41595c13.09856,6.10245 33.63834,13.01267 64.93019,23.45623l110.89312,37.0093c70.90412,23.66422 98.31342,32.30184 127.07249,32.30184c28.75906,0 56.16791,-8.63762 127.07249,-32.30184l110.89176,-37.0093c31.29094,-10.44356 51.83118,-17.35379 64.93247,-23.45623c5.63046,-2.6244 8.35458,-4.4027 9.61186,-5.41595c-1.25729,-1.01325 -3.98141,-2.79155 -9.61186,-5.41564c-13.10129,-6.10245 -33.64152,-13.01298 -64.92791,-23.45623c-0.00456,-0.00031 0,0 0,0l-110.89631,-37.00962c-70.90458,-23.66422 -98.31342,-32.30184 -127.07249,-32.30184zm313.5062,99.21512c-0.02733,-0.00157 -0.11388,-0.10211 -0.19588,-0.29753c0.18222,0.20108 0.22321,0.29879 0.19588,0.29753zm-0.19588,-1.76604c0.082,-0.19542 0.16855,-0.29596 0.19588,-0.29722c0.02733,-0.00157 -0.01367,0.09614 -0.19588,0.29722zm-626.81653,-0.29722c0.02551,0.00157 0.11525,0.10211 0.1936,0.29753c-0.17948,-0.20108 -0.21866,-0.29879 -0.1936,-0.29753zm0.1936,1.76573c-0.07835,0.19542 -0.16809,0.29596 -0.1936,0.29722c-0.02505,0.00157 0.01412,-0.09614 0.1936,-0.29722zm167.73067,-104.06899c62.3277,-20.81738 102.16227,-34.12193 145.58193,-34.12193c43.42057,0 83.25423,13.30486 145.58557,34.12287c2.0727,0.69184 4.16818,1.39216 6.29099,2.10034c0,0 0,0 0,0l112.95535,37.69768c28.6716,9.56761 53.01102,17.69028 69.93428,25.57542c16.95059,7.8952 35.3589,19.57886 35.3589,37.96035c0,18.38149 -18.40831,30.06515 -35.3589,37.96066c-16.92326,7.88514 -41.26268,16.00781 -69.93428,25.57511l-112.95535,37.69768c0,0 0,0 0,0c-2.12281,0.70818 -4.21829,1.4085 -6.29099,2.10034c-62.33134,20.81832 -102.165,34.12287 -145.58557,34.12287c-43.42103,0 -83.25605,-13.30486 -145.58648,-34.1235c-2.07088,-0.69152 -4.16681,-1.39153 -6.28871,-2.09971c0,0 0.00046,0 0,0l-110.89312,-37.0093l-2.05585,-0.68618c-28.67388,-9.56824 -53.0174,-17.69185 -69.9443,-25.57731c-16.94831,-7.89582 -35.35663,-19.57948 -35.35663,-37.96066c0,-18.38118 18.40831,-30.06483 35.35663,-37.96035c16.9269,-7.88577 41.26997,-16.00907 69.94385,-25.57762c0.68285,-0.22779 1.36844,-0.45651 2.0563,-0.68618l110.89312,-37.0093c0,0 0,0.00031 0,0c2.12327,-0.70849 4.22102,-1.40913 6.29327,-2.10128z" clip-rule="evenodd" fill-rule="evenodd"/>
   <path stroke="null" fill="#363636" d="m143.76517,291.71894c7.03215,-9.7002 24.13398,-13.63193 38.19828,-8.78183l75.92325,26.18212c14.06384,4.8501 19.76445,16.64529 12.7323,26.34392c-7.03169,9.70208 -24.13398,13.63256 -38.19782,8.78466l-75.92325,-26.18369c-14.0643,-4.8501 -19.76491,-16.64529 -12.73276,-26.34518z" clip-rule="evenodd" fill-rule="evenodd"/>
   <path stroke="null" fill="#363636" d="m612.27384,82.26107c7.03352,9.7002 1.33017,21.49539 -12.7323,26.34549l-379.61669,130.91089c-14.0643,4.8501 -31.16613,0.91837 -38.19782,-8.78183c-7.03215,-9.69988 -1.33154,-21.49508 12.7323,-26.34518l379.61761,-130.91121c14.06248,-4.8501 31.16339,-0.91837 38.19691,8.78183z" clip-rule="evenodd" fill-rule="evenodd"/>
  </g>
 </g>
</svg>